<svg width="32" height="32" viewBox="0 0 32 32" fill="none" xmlns="http://www.w3.org/2000/svg">
<path d="M5.33331 9.33333C5.33331 8.97971 5.47379 8.64057 5.72384 8.39052C5.97389 8.14048 6.31302 8 6.66665 8H25.3333C25.6869 8 26.0261 8.14048 26.2761 8.39052C26.5262 8.64057 26.6666 8.97971 26.6666 9.33333C26.6666 9.68696 26.5262 10.0261 26.2761 10.2761C26.0261 10.5262 25.6869 10.6667 25.3333 10.6667H6.66665C6.31302 10.6667 5.97389 10.5262 5.72384 10.2761C5.47379 10.0261 5.33331 9.68696 5.33331 9.33333ZM5.33331 16C5.33331 15.6464 5.47379 15.3072 5.72384 15.0572C5.97389 14.8071 6.31302 14.6667 6.66665 14.6667H25.3333C25.6869 14.6667 26.0261 14.8071 26.2761 15.0572C26.5262 15.3072 26.6666 15.6464 26.6666 16C26.6666 16.3536 26.5262 16.6928 26.2761 16.9428C26.0261 17.1929 25.6869 17.3333 25.3333 17.3333H6.66665C6.31302 17.3333 5.97389 17.1929 5.72384 16.9428C5.47379 16.6928 5.33331 16.3536 5.33331 16ZM5.33331 22.6667C5.33331 22.313 5.47379 21.9739 5.72384 21.7239C5.97389 21.4738 6.31302 21.3333 6.66665 21.3333H25.3333C25.6869 21.3333 26.0261 21.4738 26.2761 21.7239C26.5262 21.9739 26.6666 22.313 26.6666 22.6667C26.6666 23.0203 26.5262 23.3594 26.2761 23.6095C26.0261 23.8595 25.6869 24 25.3333 24H6.66665C6.31302 24 5.97389 23.8595 5.72384 23.6095C5.47379 23.3594 5.33331 23.0203 5.33331 22.6667Z" fill="#FBFBFB"/>
</svg>
