<svg width="29" height="29" viewBox="0 0 29 29" fill="none" xmlns="http://www.w3.org/2000/svg">
<path d="M27.6632 17.5799L25.4984 15.8277C25.6008 15.2332 25.6537 14.6262 25.6537 14.0192C25.6537 13.4122 25.6008 12.8052 25.4984 12.2107L27.6632 10.4585C27.8264 10.3261 27.9433 10.1499 27.9982 9.95315C28.0531 9.75641 28.0435 9.5485 27.9705 9.35709L27.9408 9.27573C27.3448 7.69883 26.4524 6.23702 25.3067 4.96093L25.2472 4.89522C25.1082 4.7405 24.9229 4.62928 24.7159 4.57622C24.5088 4.52316 24.2896 4.53074 24.0871 4.59797L21.4001 5.50224C20.4086 4.73252 19.3014 4.1255 18.105 3.69997L17.5861 1.04037C17.547 0.840252 17.4444 0.656146 17.2921 0.512513C17.1398 0.36888 16.9449 0.27252 16.7334 0.236235L16.6442 0.22059C14.9222 -0.07353 13.1111 -0.07353 11.3892 0.22059L11.2999 0.236235C11.0884 0.27252 10.8935 0.36888 10.7412 0.512513C10.5889 0.656146 10.4864 0.840252 10.4472 1.04037L9.92503 3.71248C8.73816 4.13811 7.63288 4.7448 6.65305 5.50849L3.94622 4.59797C3.74384 4.53021 3.52447 4.52235 3.31726 4.57544C3.11004 4.62854 2.9248 4.74007 2.78615 4.89522L2.72666 4.96093C1.58228 6.23792 0.690019 7.69949 0.0925477 9.27573L0.0628023 9.35709C-0.0859243 9.7482 0.0363621 10.1863 0.370171 10.4585L2.56141 12.2295C2.45895 12.8177 2.40938 13.4184 2.40938 14.0161C2.40938 14.6168 2.45895 15.2176 2.56141 15.8027L0.370171 17.5737C0.206888 17.706 0.0900242 17.8823 0.0351193 18.079C-0.0197855 18.2757 -0.0101299 18.4836 0.0628023 18.6751L0.0925477 18.7564C0.690759 20.3334 1.57651 21.7884 2.72666 23.0712L2.78615 23.1369C2.92514 23.2916 3.11039 23.4029 3.31748 23.4559C3.52457 23.509 3.74378 23.5014 3.94622 23.4342L6.65305 22.5237C7.63795 23.2902 8.73852 23.8973 9.92503 24.3197L10.4472 26.9918C10.4864 27.1919 10.5889 27.376 10.7412 27.5196C10.8935 27.6633 11.0884 27.7596 11.2999 27.7959L11.3892 27.8116C13.1269 28.1073 14.9064 28.1073 16.6442 27.8116L16.7334 27.7959C16.9449 27.7596 17.1398 27.6633 17.2921 27.5196C17.4444 27.376 17.547 27.1919 17.5861 26.9918L18.105 24.3322C19.3009 23.9078 20.4144 23.2988 21.4001 22.5299L24.0871 23.4342C24.2895 23.5019 24.5089 23.5098 24.7161 23.4567C24.9233 23.4036 25.1085 23.2921 25.2472 23.1369L25.3067 23.0712C26.4568 21.7852 27.3426 20.3334 27.9408 18.7564L27.9705 18.6751C28.1193 18.2902 27.997 17.8522 27.6632 17.5799ZM23.1518 12.5799C23.2344 13.0524 23.2774 13.5373 23.2774 14.0223C23.2774 14.5073 23.2344 14.9923 23.1518 15.4648L22.9337 16.7195L25.4025 18.7189C25.0282 19.5352 24.5558 20.3079 23.9946 21.0218L20.9275 19.9923L19.8897 20.7996C19.0998 21.4129 18.2207 21.8947 17.2688 22.2327L16.0096 22.6801L15.418 25.7152C14.4846 25.8153 13.5422 25.8153 12.6087 25.7152L12.0171 22.6738L10.7678 22.2201C9.82588 21.8822 8.95005 21.4004 8.16675 20.7902L7.12897 19.9798L4.04207 21.0186C3.48021 20.3021 3.0109 19.5293 2.63412 18.7157L5.12942 16.6976L4.9146 15.446C4.83528 14.9798 4.79231 14.4979 4.79231 14.0223C4.79231 13.5436 4.83197 13.0649 4.9146 12.5987L5.12942 11.3471L2.63412 9.32893C3.00759 8.51227 3.48021 7.74255 4.04207 7.02603L7.12897 8.06484L8.16675 7.25444C8.95005 6.6443 9.82588 6.16244 10.7678 5.82452L12.0204 5.37708L12.612 2.33575C13.5407 2.23563 14.4893 2.23563 15.4213 2.33575L16.0129 5.37082L17.2721 5.81826C18.2207 6.15618 19.1031 6.63804 19.893 7.25131L20.9308 8.05858L23.9979 7.02916C24.5597 7.74568 25.029 8.51853 25.4058 9.33206L22.937 11.3314L23.1518 12.5799ZM14.02 8.20251C10.8075 8.20251 8.20311 10.6681 8.20311 13.7094C8.20311 16.7508 10.8075 19.2164 14.02 19.2164C17.2325 19.2164 19.8368 16.7508 19.8368 13.7094C19.8368 10.6681 17.2325 8.20251 14.02 8.20251ZM16.6376 16.1876C16.2942 16.5135 15.8862 16.772 15.437 16.9481C14.9878 17.1243 14.5062 17.2146 14.02 17.2139C13.0318 17.2139 12.1031 16.8478 11.4024 16.1876C11.0581 15.8625 10.785 15.4763 10.599 15.051C10.413 14.6257 10.3176 14.1698 10.3183 13.7094C10.3183 12.7739 10.705 11.8947 11.4024 11.2313C12.1031 10.568 13.0318 10.205 14.02 10.205C15.0082 10.205 15.9369 10.568 16.6376 11.2313C16.9819 11.5563 17.2549 11.9426 17.4409 12.3679C17.627 12.7932 17.7224 13.2491 17.7216 13.7094C17.7216 14.645 17.3349 15.5242 16.6376 16.1876Z" fill="white"/>
</svg>
